<svg width="40" height="40" viewBox="0 0 40 40" fill="none" xmlns="http://www.w3.org/2000/svg">
<circle cx="20" cy="20" r="20" fill="#2BA8DD"/>
<path d="M20.5367 7.0236C20.4704 6.9471 20.3881 6.88568 20.2955 6.84357C20.2029 6.80147 20.1022 6.77966 20.0003 6.77966C19.8983 6.77966 19.7976 6.80147 19.705 6.84357C19.6124 6.88568 19.5301 6.9471 19.4638 7.0236C17.6006 9.17683 11.5254 16.621 11.5254 22.1351C11.5254 27.2737 14.7999 30.5085 20 30.5085C25.2001 30.5085 28.4745 27.2737 28.4745 22.1351C28.4745 16.621 22.3993 9.17683 20.5367 7.0236ZM20.9416 27.4848C20.8285 27.485 20.717 27.4584 20.6164 27.4072C20.5159 27.356 20.4293 27.2817 20.3639 27.1905C20.2985 27.0993 20.2562 26.9939 20.2406 26.8832C20.225 26.7725 20.2365 26.6598 20.2742 26.5544C20.3224 26.4169 20.4132 26.2979 20.5338 26.2144C20.6543 26.1309 20.7985 26.0871 20.9457 26.0892C21.8805 26.0872 22.7764 25.7194 23.4374 25.0663C24.0984 24.4132 24.4706 23.528 24.4727 22.6044C24.4705 22.4589 24.5149 22.3165 24.5994 22.1974C24.6839 22.0782 24.8043 21.9885 24.9435 21.9409C25.0501 21.9037 25.1643 21.8923 25.2763 21.9077C25.3883 21.9231 25.495 21.9649 25.5872 22.0295C25.6795 22.0941 25.7547 22.1797 25.8066 22.279C25.8584 22.3784 25.8853 22.4886 25.8851 22.6003C25.8837 23.8953 25.3624 25.1369 24.4356 26.0526C23.5088 26.9683 22.2523 27.4834 20.9416 27.4848Z" fill="white"/>
</svg>
