<svg width="40" height="40" viewBox="0 0 40 40" fill="none" xmlns="http://www.w3.org/2000/svg">
<circle cx="20" cy="20" r="20" fill="#E3E3E3"/>
<path d="M20.2372 12.2537C21.7996 12.2537 23.1047 11.036 23.26 9.51417C23.2742 9.37247 23.1184 9.23077 22.9767 9.23077C22.9 9.23085 22.8241 9.24527 22.7528 9.27328C22.7433 9.27706 21.7562 9.65587 20.2372 9.65587C18.7182 9.65587 17.7291 9.27801 17.7216 9.27328C17.6411 9.24528 17.5565 9.23091 17.4712 9.23077H17.4684C17.4331 9.23265 17.3985 9.24147 17.3666 9.25673C17.3347 9.272 17.3061 9.29341 17.2825 9.31973C17.2589 9.34606 17.2407 9.37679 17.229 9.41015C17.2173 9.44352 17.2123 9.47886 17.2143 9.51417C17.3725 11.0332 18.6785 12.2537 20.2372 12.2537Z" fill="white"/>
<path d="M31.067 11.9655L24.9603 9.82779C24.9342 9.81866 24.9064 9.8154 24.8788 9.81822C24.8513 9.82105 24.8247 9.8299 24.8009 9.84414C24.7772 9.85838 24.7569 9.87766 24.7414 9.90063C24.7259 9.9236 24.7157 9.94968 24.7114 9.97704C24.5347 11.0356 23.9884 11.9971 23.1694 12.6907C22.3505 13.3842 21.3121 13.7648 20.239 13.7648C19.1658 13.7648 18.1274 13.3842 17.3085 12.6907C16.4896 11.9971 15.9432 11.0356 15.7665 9.97704C15.7624 9.94923 15.7521 9.92269 15.7364 9.89936C15.7207 9.87603 15.7 9.85651 15.6757 9.84221C15.6515 9.8279 15.6244 9.81919 15.5964 9.81669C15.5684 9.8142 15.5402 9.81799 15.5138 9.82779L9.40715 11.9655C9.23623 12.0254 9.09247 12.1446 9.00206 12.3015C8.91164 12.4584 8.88058 12.6426 8.91451 12.8204L9.69999 16.9769C9.73022 17.1353 9.81034 17.2799 9.92864 17.3896C10.0469 17.4992 10.1972 17.5681 10.3575 17.5862L12.6662 17.8469C12.7604 17.8575 12.8472 17.9032 12.9094 17.9749C12.9715 18.0466 13.0044 18.139 13.0015 18.2338L12.6553 29.6121C12.6507 29.7587 12.6889 29.9035 12.7653 30.0288C12.8416 30.1541 12.9527 30.2545 13.0851 30.3177C13.1952 30.3674 13.3148 30.3924 13.4356 30.3909H27.0386C27.1593 30.3924 27.279 30.3674 27.389 30.3177C27.5214 30.2545 27.6326 30.1541 27.7089 30.0288C27.7852 29.9035 27.8234 29.7587 27.8188 29.6121L27.4726 18.2338C27.4698 18.139 27.5027 18.0466 27.5648 17.9749C27.6269 17.9032 27.7137 17.8575 27.808 17.8469L30.1167 17.5862C30.277 17.5681 30.4272 17.4992 30.5455 17.3896C30.6638 17.2799 30.744 17.1353 30.7742 16.9769L31.5597 12.8204C31.5936 12.6426 31.5625 12.4584 31.4721 12.3015C31.3817 12.1446 31.238 12.0254 31.067 11.9655Z" fill="white"/>
</svg>
