<svg xmlns="http://www.w3.org/2000/svg" viewBox="0 0 512 512"><defs><style>.cls-1{fill:#e3e3e3;}</style></defs><title>icon</title><g id="Layer_1" data-name="Layer 1"><path class="cls-1" d="M256,19C125.11,19,19,125.11,19,256S125.11,493,256,493,493,386.89,493,256,386.89,19,256,19ZM110.67,168.8a21.83,21.83,0,0,1,21.8-21.8H379.53a21.83,21.83,0,0,1,21.8,21.8v21.8h-7.26a36.38,36.38,0,0,0-36.34,36.33v36.34H154.27V226.93a36.38,36.38,0,0,0-36.34-36.33h-7.26ZM408.6,335.93h-7.27v21.8a7.27,7.27,0,0,1-7.26,7.27h-43.6a7.28,7.28,0,0,1-7.27-7.27v-21.8H168.8v21.8a7.28,7.28,0,0,1-7.27,7.27h-43.6a7.27,7.27,0,0,1-7.26-7.27v-21.8H103.4a21.83,21.83,0,0,1-21.8-21.8v-87.2a21.83,21.83,0,0,1,21.8-21.8h14.53a21.83,21.83,0,0,1,21.8,21.8v43.6A7.28,7.28,0,0,0,147,277.8H365a7.28,7.28,0,0,0,7.27-7.27v-43.6a21.83,21.83,0,0,1,21.8-21.8H408.6a21.83,21.83,0,0,1,21.8,21.8v87.2A21.83,21.83,0,0,1,408.6,335.93Z"/></g></svg>