<svg xmlns="http://www.w3.org/2000/svg" viewBox="0 0 512 512"><defs><style>.cls-1{fill:#2ba8dd;}</style></defs><title>icon</title><g id="Layer_1" data-name="Layer 1"><path class="cls-1" d="M260.24,333.34a8,8,0,0,0-.4,3.88,8.16,8.16,0,0,0,1.45,3.63,8.4,8.4,0,0,0,6.82,3.47,58.75,58.75,0,0,0,41.23-16.9,57.29,57.29,0,0,0,17.1-40.74,8.1,8.1,0,0,0-.92-3.79,8.23,8.23,0,0,0-2.59-2.94,8.42,8.42,0,0,0-7.6-1.05,8.24,8.24,0,0,0-4.06,3,8.1,8.1,0,0,0-1.49,4.8,41,41,0,0,1-12.22,29,41.93,41.93,0,0,1-29.4,12.07,8.32,8.32,0,0,0-4.86,1.48A8.16,8.16,0,0,0,260.24,333.34Z"/><path class="cls-1" d="M256,19C125.11,19,19,125.11,19,256S125.11,493,256,493,493,386.89,493,256,386.89,19,256,19Zm1,361c-61.36,0-100-38.17-100-98.81,0-65.06,71.69-152.9,93.67-178.31a8.43,8.43,0,0,1,9.82-2.13,8.4,8.4,0,0,1,2.84,2.13c22,25.41,93.67,113.25,93.67,178.31C357,341.83,318.36,380,257,380Z"/></g></svg>