<svg xmlns="http://www.w3.org/2000/svg" viewBox="0 0 512 512"><defs><style>.cls-1{fill:#e3e3e3;}</style></defs><title>icon</title><g id="Layer_1" data-name="Layer 1"><path class="cls-1" d="M256,19C125.11,19,19,125.11,19,256S125.11,493,256,493,493,386.89,493,256,386.89,19,256,19ZM220.3,131a3.22,3.22,0,0,1,.63-1.07,3.18,3.18,0,0,1,1-.74,3.28,3.28,0,0,1,1.2-.31h0a9,9,0,0,1,3,.5c.09.06,11.76,4.52,29.69,4.52s29.57-4.47,29.68-4.52a7.24,7.24,0,0,1,2.64-.5c1.68,0,3.52,1.68,3.35,3.35a36.17,36.17,0,0,1-35.67,32.32c-18.39,0-33.8-14.4-35.67-32.32A3.19,3.19,0,0,1,220.3,131Zm169.1,40.24-9.26,49.05a8.92,8.92,0,0,1-7.76,7.19l-27.25,3.07a4.48,4.48,0,0,0-2.86,1.51,4.42,4.42,0,0,0-1.09,3.06l4.08,134.26a8.89,8.89,0,0,1-5.07,8.33,9.66,9.66,0,0,1-4.13.86H175.54a9.63,9.63,0,0,1-4.13-.86,8.92,8.92,0,0,1-5.08-8.33l4.09-134.26a4.46,4.46,0,0,0-4-4.57l-27.24-3.07a8.92,8.92,0,0,1-7.76-7.19l-9.27-49.05A8.92,8.92,0,0,1,128,161.19L200.06,136a2.23,2.23,0,0,1,1.91.17,2.31,2.31,0,0,1,.72.67,2.22,2.22,0,0,1,.36.92,53.5,53.5,0,0,0,105.54,0,2.43,2.43,0,0,1,.36-.9,2.24,2.24,0,0,1,.7-.67,2.17,2.17,0,0,1,.92-.3,2.09,2.09,0,0,1,1,.11l72.06,25.22a9,9,0,0,1,4.78,4A8.83,8.83,0,0,1,389.4,171.28Z"/></g></svg>