<svg xmlns="http://www.w3.org/2000/svg" viewBox="0 0 512 512"><defs><style>.cls-1{fill:#e3e3e3;}</style></defs><title>icon</title><g id="Layer_1" data-name="Layer 1"><path class="cls-1" d="M232.53,185.6h46.94a5.87,5.87,0,0,0,0-11.73H232.53a5.87,5.87,0,0,0,0,11.73Z"/><path class="cls-1" d="M402.67,250.13H109.33a5.87,5.87,0,0,0,0,11.74H402.67a5.87,5.87,0,0,0,0-11.74Z"/><path class="cls-1" d="M256,19C125.11,19,19,125.11,19,256S125.11,493,256,493,493,386.89,493,256,386.89,19,256,19ZM218.41,408.35a8.21,8.21,0,0,1-3.85.95,8.38,8.38,0,0,1-3.86-15.81c7.66-4,12.23-9,12.23-13.5s-4.57-9.54-12.23-13.51c-13.71-7.1-21.27-17.18-21.27-28.37s7.56-21.26,21.27-28.37a8.37,8.37,0,0,1,7.71,14.87c-7.66,4-12.23,9-12.23,13.5s4.57,9.53,12.23,13.5c13.72,7.11,21.27,17.19,21.27,28.38S232.13,401.25,218.41,408.35Zm82.89,0a8.24,8.24,0,0,1-3.85.95,8.38,8.38,0,0,1-3.86-15.81c7.65-4,12.23-9,12.23-13.5s-4.57-9.54-12.23-13.51c-13.72-7.1-21.27-17.18-21.27-28.37s7.55-21.26,21.27-28.37a8.37,8.37,0,0,1,7.71,14.87c-7.66,4-12.23,9-12.23,13.5s4.57,9.53,12.23,13.5C315,358.72,322.57,368.8,322.57,380S315,401.25,301.3,408.35Zm113.1-123H97.6A17.62,17.62,0,0,1,80,267.73V150.4a17.62,17.62,0,0,1,17.6-17.6H414.4A17.62,17.62,0,0,1,432,150.4V267.73A17.62,17.62,0,0,1,414.4,285.33Z"/><path class="cls-1" d="M402.67,226.67H109.33a5.87,5.87,0,0,0,0,11.73H402.67a5.87,5.87,0,0,0,0-11.73Z"/></g></svg>