<svg xmlns="http://www.w3.org/2000/svg" viewBox="0 0 512 512"><defs><style>.cls-1{fill:#e3e3e3;}</style></defs><title>icon</title><g id="Layer_1" data-name="Layer 1"><circle class="cls-1" cx="174" cy="280.75" r="20.5" transform="translate(-46.07 34.45) rotate(-9.99)"/><polygon class="cls-1" points="332.99 147.5 179 147.5 179 147.5 160.55 209 351.44 209 332.99 147.5"/><path class="cls-1" d="M256,19C125.11,19,19,125.11,19,256S125.11,493,256,493,493,386.89,493,256,386.89,19,256,19ZM420,332a20.5,20.5,0,0,1-20.5,20.5h0V373A20.5,20.5,0,0,1,379,393.5H358.5A20.5,20.5,0,0,1,338,373V352.5H174V373a20.5,20.5,0,0,1-20.5,20.5H133A20.5,20.5,0,0,1,112.5,373V352.5h0A20.5,20.5,0,0,1,92,332V250a41,41,0,0,1,24.72-37.59l23-76.68A40.74,40.74,0,0,1,179,106.5H333a40.75,40.75,0,0,1,39.28,29.23l23,76.68A41,41,0,0,1,420,250Z"/><circle class="cls-1" cx="338" cy="280.75" r="20.5" transform="translate(-43.58 62.9) rotate(-9.99)"/></g></svg>