<svg xmlns="http://www.w3.org/2000/svg" viewBox="0 0 512 512"><defs><style>.cls-1{fill:#e3e3e3;}.cls-2{fill:#fff;}</style></defs><title>icon</title><g id="Layer_2" data-name="Layer 2"><circle class="cls-1" cx="256" cy="256" r="237"/></g><g id="Layer_1" data-name="Layer 1"><path class="cls-2" d="M135.53,214.34h98.73V121.87H113.15V243h22.38Z"/><path class="cls-2" d="M256.64,271.61a19.09,19.09,0,0,0,0-38.18h-102v38.18Z"/><path class="cls-2" d="M186.54,348a38.18,38.18,0,0,0,76.35,0Z"/><path class="cls-2" d="M400.73,290.69c1.85,0,3.67.1,5.48.27l-13.77-73.44h19.07V198.43H388.86l-3.58-19.08H310.55v19.08H340l18.11,111.35H288.19L277.1,284.72a37.9,37.9,0,0,1-20.46,6H164.36a66.55,66.55,0,0,0-6.45,28.64v9.54H346.74a57.36,57.36,0,0,1,54-38.18Z"/><circle class="cls-2" cx="400.8" cy="347.77" r="38.19"/></g></svg>